# xmcd
#
# Track frame offsets: 
#        150
#        20197
#        41606
#        54048
#        70871
#        84817
#        96200
#        106780
#        128939
#        148214
#        164138
#        176356
#        186868
#        198480
#        216188
#        230886
#        246590
#        267840
#        280156
#
# Disc length: 3915 seconds
#
# Revision: 0
# Processed by: cddbd v1.5.2PL0 Copyright (c) Steve Scherf et al.
# Submitted via: ExactAudioCopy v0.99pb3
#
DISCID=1d0f4913
DTITLE=Johnny Winter - Rockin' Bluesman
DYEAR=2005
DGENRE=Blues
TTITLE0=Going Down Slow
TTITLE1=Leavin' Blues
TTITLE2=Kind Hearted Woman
TTITLE3=Low Down Gal of Mine
TTITLE4=Avocado Green
TTITLE5=Thirty-two, Twenty Blues
TTITLE6=Look Up
TTITLE7=Prodigal Son
TTITLE8=Out on a Limb
TTITLE9=Parchman Farm
TTITLE10=Out of Sight
TTITLE11=Bad News
TTITLE12=Stranger Blues
TTITLE13=Let the Music Play
TTITLE14=Self Destruction Blues
TTITLE15=Raised on Rock
TTITLE16=Rock and Roll People
TTITLE17=Golden Days of Rock and Roll
TTITLE18=Hoochie Koo
EXTD=
EXTT0=
EXTT1=
EXTT2=
EXTT3=
EXTT4=
EXTT5=
EXTT6=
EXTT7=
EXTT8=
EXTT9=
EXTT10=
EXTT11=
EXTT12=
EXTT13=
EXTT14=
EXTT15=
EXTT16=
EXTT17=
EXTT18=
PLAYORDER=
